{
  "accessors": [
    {
      "bufferView": 2,
      "componentType": 5126,
      "count": 65532,
      "max": [
        2.9999349117279053,
        2.99216365814209,
        2.9991090297698975
      ],
      "min": [
        -2.9999406337738037,
        -3.0078306198120117,
        -3.0008273124694824
      ],
      "type": "VEC3"
    },
    {
      "bufferView": 2,
      "byteOffset": 786384,
      "componentType": 5126,
      "count": 65532,
      "max": [
        1.0,
        1.0,
        1.0
      ],
      "min": [
        -1.0,
        -1.0,
        -1.0
      ],
      "type": "VEC3"
    },
    {
      "bufferView": 1,
      "componentType": 5126,
      "count": 65532,
      "max": [
        0.9156372547149658,
        0.8982420563697815
      ],
      "min": [
        0.0,
        0.0
      ],
      "type": "VEC2"
    },
    {
      "bufferView": 0,
      "componentType": 5125,
      "count": 147843,
      "type": "SCALAR"
    },
    {
      "bufferView": 2,
      "byteOffset": 1572768,
      "componentType": 5126,
      "count": 28601,
      "max": [
        2.999934673309326,
        0.9921666383743286,
        2.9991085529327393
      ],
      "min": [
        -2.9999406337738037,
        -3.0078306198120117,
        -3.0008273124694824
      ],
      "type": "VEC3"
    },
    {
      "bufferView": 2,
      "byteOffset": 1915980,
      "componentType": 5126,
      "count": 28601,
      "max": [
        1.0,
        1.0,
        1.0
      ],
      "min": [
        -1.0,
        -1.0,
        -1.0
      ],
      "type": "VEC3"
    },
    {
      "bufferView": 1,
      "byteOffset": 524256,
      "componentType": 5126,
      "count": 28601,
      "max": [
        0.9222196340560913,
        0.8912256956100464
      ],
      "min": [
        0.0,
        0.0
      ],
      "type": "VEC2"
    },
    {
      "bufferView": 0,
      "byteOffset": 591372,
      "componentType": 5125,
      "count": 62757,
      "type": "SCALAR"
    },
    {
      "bufferView": 2,
      "byteOffset": 2259192,
      "componentType": 5126,
      "count": 31505,
      "max": [
        2.864919424057007,
        2.876500368118286,
        -2.7165513038635254
      ],
      "min": [
        -2.8649256229400635,
        -2.892167329788208,
        -3.042621612548828
      ],
      "type": "VEC3"
    },
    {
      "bufferView": 2,
      "byteOffset": 2637252,
      "componentType": 5126,
      "count": 31505,
      "max": [
        1.0,
        1.0,
        1.0
      ],
      "min": [
        -1.0,
        -1.0,
        -1.0
      ],
      "type": "VEC3"
    },
    {
      "bufferView": 1,
      "byteOffset": 753064,
      "componentType": 5126,
      "count": 31505,
      "max": [
        0.9519305229187012,
        1.0
      ],
      "min": [
        0.0,
        0.055794607847929
      ],
      "type": "VEC2"
    },
    {
      "bufferView": 0,
      "byteOffset": 842400,
      "componentType": 5125,
      "count": 72900,
      "type": "SCALAR"
    },
    {
      "bufferView": 2,
      "byteOffset": 3015312,
      "componentType": 5126,
      "count": 32740,
      "max": [
        2.864919662475586,
        2.876500368118286,
        3.048478126525879
      ],
      "min": [
        -2.8649251461029053,
        -2.892167329788208,
        2.722407579421997
      ],
      "type": "VEC3"
    },
    {
      "bufferView": 2,
      "byteOffset": 3408192,
      "componentType": 5126,
      "count": 32740,
      "max": [
        1.0,
        1.0,
        1.0
      ],
      "min": [
        -1.0,
        -1.0,
        -1.0
      ],
      "type": "VEC3"
    },
    {
      "bufferView": 1,
      "byteOffset": 1005104,
      "componentType": 5126,
      "count": 32740,
      "max": [
        0.941617488861084,
        1.0
      ],
      "min": [
        0.041776299476623535,
        0.0
      ],
      "type": "VEC2"
    },
    {
      "bufferView": 0,
      "byteOffset": 1134000,
      "componentType": 5125,
      "count": 72900,
      "type": "SCALAR"
    },
    {
      "bufferView": 2,
      "byteOffset": 3801072,
      "componentType": 5126,
      "count": 31301,
      "max": [
        -2.752868890762329,
        2.8562638759613037,
        2.88344407081604
      ],
      "min": [
        -3.0789363384246826,
        -2.873582363128662,
        -2.8851637840270996
      ],
      "type": "VEC3"
    },
    {
      "bufferView": 2,
      "byteOffset": 4176684,
      "componentType": 5126,
      "count": 31301,
      "max": [
        1.0,
        1.0,
        1.0
      ],
      "min": [
        -1.0,
        -1.0,
        -1.0
      ],
      "type": "VEC3"
    },
    {
      "bufferView": 1,
      "byteOffset": 1267024,
      "componentType": 5126,
      "count": 31301,
      "max": [
        0.9912148714065552,
        0.9909336566925049
      ],
      "min": [
        0.0,
        0.0
      ],
      "type": "VEC2"
    },
    {
      "bufferView": 0,
      "byteOffset": 1425600,
      "componentType": 5125,
      "count": 72900,
      "type": "SCALAR"
    },
    {
      "bufferView": 2,
      "byteOffset": 4552296,
      "componentType": 5126,
      "count": 31744,
      "max": [
        3.078930139541626,
        2.8808717727661133,
        2.8834450244903564
      ],
      "min": [
        2.7528629302978516,
        -2.8489744663238525,
        -2.885162353515625
      ],
      "type": "VEC3"
    },
    {
      "bufferView": 2,
      "byteOffset": 4933224,
      "componentType": 5126,
      "count": 31744,
      "max": [
        1.0,
        1.0,
        1.0
      ],
      "min": [
        -1.0,
        -1.0,
        -1.0
      ],
      "type": "VEC3"
    },
    {
      "bufferView": 1,
      "byteOffset": 1517432,
      "componentType": 5126,
      "count": 31744,
      "max": [
        0.9948176741600037,
        0.9911853075027466
      ],
      "min": [
        0.10970297455787659,
        0.0
      ],
      "type": "VEC2"
    },
    {
      "bufferView": 0,
      "byteOffset": 1717200,
      "componentType": 5125,
      "count": 72900,
      "type": "SCALAR"
    },
    {
      "bufferView": 2,
      "byteOffset": 5314152,
      "componentType": 5126,
      "count": 31577,
      "max": [
        2.864919900894165,
        3.071099042892456,
        2.8834457397460938
      ],
      "min": [
        -2.8649256229400635,
        2.7450320720672607,
        -2.8851637840270996
      ],
      "type": "VEC3"
    },
    {
      "bufferView": 2,
      "byteOffset": 5693076,
      "componentType": 5126,
      "count": 31577,
      "max": [
        1.0,
        1.0,
        1.0
      ],
      "min": [
        -1.0,
        -1.0,
        -1.0
      ],
      "type": "VEC3"
    },
    {
      "bufferView": 1,
      "byteOffset": 1771384,
      "componentType": 5126,
      "count": 31577,
      "max": [
        1.0,
        0.9979124069213867
      ],
      "min": [
        0.055066175758838654,
        0.0
      ],
      "type": "VEC2"
    },
    {
      "bufferView": 0,
      "byteOffset": 2008800,
      "componentType": 5125,
      "count": 72900,
      "type": "SCALAR"
    },
    {
      "bufferView": 2,
      "byteOffset": 6072000,
      "componentType": 5126,
      "count": 32598,
      "max": [
        2.864920139312744,
        -2.76070237159729,
        2.8834452629089355
      ],
      "min": [
        -2.8649256229400635,
        -3.0867693424224854,
        -2.885164260864258
      ],
      "type": "VEC3"
    },
    {
      "bufferView": 2,
      "byteOffset": 6463176,
      "componentType": 5126,
      "count": 32598,
      "max": [
        1.0,
        1.0,
        1.0
      ],
      "min": [
        -1.0,
        -1.0,
        -1.0
      ],
      "type": "VEC3"
    },
    {
      "bufferView": 1,
      "byteOffset": 2024000,
      "componentType": 5126,
      "count": 32598,
      "max": [
        0.9970104098320007,
        0.9991748929023743
      ],
      "min": [
        0.0,
        0.0
      ],
      "type": "VEC2"
    },
    {
      "bufferView": 0,
      "byteOffset": 2300400,
      "componentType": 5125,
      "count": 72900,
      "type": "SCALAR"
    }
  ],
  "asset": {
    "extras": {
      "author": "Reverse (https://sketchfab.com/uspamikill)",
      "license": "CC-BY-4.0 (http://creativecommons.org/licenses/by/4.0/)",
      "source": "https://sketchfab.com/3d-models/rubiks-cube-6f47403b44a24299b79482251267b247",
      "title": "Rubik's Cube"
    },
    "generator": "Sketchfab-12.66.0",
    "version": "2.0"
  },
  "bufferViews": [
    {
      "buffer": 0,
      "byteLength": 2592000,
      "name": "floatBufferViews",
      "target": 34963
    },
    {
      "buffer": 0,
      "byteLength": 2284784,
      "byteOffset": 2592000,
      "byteStride": 8,
      "name": "floatBufferViews",
      "target": 34962
    },
    {
      "buffer": 0,
      "byteLength": 6854352,
      "byteOffset": 4876784,
      "byteStride": 12,
      "name": "floatBufferViews",
      "target": 34962
    }
  ],
  "buffers": [
    {
      "byteLength": 11731136,
      "uri": "scene.bin"
    }
  ],
  "materials": [
    {
      "doubleSided": true,
      "name": "Material.013",
      "pbrMetallicRoughness": {
        "baseColorFactor": [
          0.0272098,
          0.0272098,
          0.0272098,
          1.0
        ],
        "metallicFactor": 0.0,
        "roughnessFactor": 0.8239417257461427
      }
    },
    {
      "doubleSided": true,
      "name": "Material.015",
      "pbrMetallicRoughness": {
        "baseColorFactor": [
          0.8,
          0.8,
          0.8,
          1.0
        ],
        "metallicFactor": 0.0,
        "roughnessFactor": 0.8239417257461427
      }
    },
    {
      "doubleSided": true,
      "name": "Material.014",
      "pbrMetallicRoughness": {
        "baseColorFactor": [
          0.648142,
          0.8,
          0.0,
          1.0
        ],
        "metallicFactor": 0.0,
        "roughnessFactor": 0.8239417257461427
      }
    },
    {
      "doubleSided": true,
      "name": "Material.018",
      "pbrMetallicRoughness": {
        "baseColorFactor": [
          0.0,
          0.1398639999999996,
          0.7999999999999999,
          1.0
        ],
        "metallicFactor": 0.0,
        "roughnessFactor": 0.8239417257461427
      }
    },
    {
      "doubleSided": true,
      "name": "Material.016",
      "pbrMetallicRoughness": {
        "baseColorFactor": [
          0.00505753,
          0.447977,
          0.0,
          1.0
        ],
        "metallicFactor": 0.0,
        "roughnessFactor": 0.8239417257461427
      }
    },
    {
      "doubleSided": true,
      "name": "Material.021",
      "pbrMetallicRoughness": {
        "baseColorFactor": [
          0.7999999999999999,
          0.11868399999999998,
          0.0,
          1.0
        ],
        "metallicFactor": 0.0,
        "roughnessFactor": 0.9129192073170731
      }
    },
    {
      "doubleSided": true,
      "name": "Material.017",
      "pbrMetallicRoughness": {
        "baseColorFactor": [
          1.0,
          0.0,
          0.0,
          1.0
        ],
        "metallicFactor": 0.0,
        "roughnessFactor": 0.8239417257461427
      }
    }
  ],
  "meshes": [
    {
      "name": "rubik_Material.013_0",
      "primitives": [
        {
          "attributes": {
            "NORMAL": 1,
            "POSITION": 0,
            "TEXCOORD_0": 2
          },
          "indices": 3,
          "material": 0,
          "mode": 4
        }
      ]
    },
    {
      "name": "rubik_Material.013_0",
      "primitives": [
        {
          "attributes": {
            "NORMAL": 5,
            "POSITION": 4,
            "TEXCOORD_0": 6
          },
          "indices": 7,
          "material": 0,
          "mode": 4
        }
      ]
    },
    {
      "name": "rubik_Material.015_0",
      "primitives": [
        {
          "attributes": {
            "NORMAL": 9,
            "POSITION": 8,
            "TEXCOORD_0": 10
          },
          "indices": 11,
          "material": 1,
          "mode": 4
        }
      ]
    },
    {
      "name": "rubik_Material.014_0",
      "primitives": [
        {
          "attributes": {
            "NORMAL": 13,
            "POSITION": 12,
            "TEXCOORD_0": 14
          },
          "indices": 15,
          "material": 2,
          "mode": 4
        }
      ]
    },
    {
      "name": "rubik_Material.018_0",
      "primitives": [
        {
          "attributes": {
            "NORMAL": 17,
            "POSITION": 16,
            "TEXCOORD_0": 18
          },
          "indices": 19,
          "material": 3,
          "mode": 4
        }
      ]
    },
    {
      "name": "rubik_Material.016_0",
      "primitives": [
        {
          "attributes": {
            "NORMAL": 21,
            "POSITION": 20,
            "TEXCOORD_0": 22
          },
          "indices": 23,
          "material": 4,
          "mode": 4
        }
      ]
    },
    {
      "name": "rubik_Material.021_0",
      "primitives": [
        {
          "attributes": {
            "NORMAL": 25,
            "POSITION": 24,
            "TEXCOORD_0": 26
          },
          "indices": 27,
          "material": 5,
          "mode": 4
        }
      ]
    },
    {
      "name": "rubik_Material.017_0",
      "primitives": [
        {
          "attributes": {
            "NORMAL": 29,
            "POSITION": 28,
            "TEXCOORD_0": 30
          },
          "indices": 31,
          "material": 6,
          "mode": 4
        }
      ]
    }
  ],
  "nodes": [
    {
      "children": [
        1
      ],
      "matrix": [
        1.0,
        3.814772689254087e-17,
        -4.7972585194248724e-20,
        0.0,
        2.0652255835232948e-19,
        -0.004156221169978602,
        0.9999913573265076,
        0.0,
        3.8147197496948834e-17,
        -0.9999913573265076,
        -0.004156221169978602,
        0.0,
        -1.909036080258164e-14,
        1000.873779296875,
        2.080669879913552,
        1.0
      ],
      "name": "Sketchfab_model"
    },
    {
      "children": [
        2
      ],
      "matrix": [
        1.0,
        0.0,
        0.0,
        0.0,
        0.0,
        0.0,
        1.0,
        0.0,
        0.0,
        -1.0,
        0.0,
        0.0,
        0.0,
        0.0,
        0.0,
        1.0
      ],
      "name": "dfae3a65768e484aaef56efcc904fcd9.fbx"
    },
    {
      "children": [
        3
      ],
      "name": "RootNode"
    },
    {
      "children": [
        4,
        5,
        6,
        7,
        8,
        9,
        10,
        11
      ],
      "matrix": [
        116.7286605834961,
        0.0,
        0.0,
        0.0,
        0.0,
        -1.9017512686761674e-05,
        -116.72866058349454,
        0.0,
        0.0,
        116.72866058349454,
        -1.9017512686761674e-05,
        0.0,
        0.00032248208299279213,
        500.0967102050781,
        -0.9143747091293335,
        1.0
      ],
      "name": "rubik"
    },
    {
      "mesh": 0,
      "name": "rubik_Material.013_0"
    },
    {
      "mesh": 1,
      "name": "rubik_Material.013_0"
    },
    {
      "mesh": 2,
      "name": "rubik_Material.015_0"
    },
    {
      "mesh": 3,
      "name": "rubik_Material.014_0"
    },
    {
      "mesh": 4,
      "name": "rubik_Material.018_0"
    },
    {
      "mesh": 5,
      "name": "rubik_Material.016_0"
    },
    {
      "mesh": 6,
      "name": "rubik_Material.021_0"
    },
    {
      "mesh": 7,
      "name": "rubik_Material.017_0"
    }
  ],
  "scene": 0,
  "scenes": [
    {
      "name": "Sketchfab_Scene",
      "nodes": [
        0
      ]
    }
  ]
}
