{
  "accessors": [
    {
      "bufferView": 2,
      "componentType": 5126,
      "count": 320,
      "max": [
        1.1125669479370117,
        1.4260400533676147,
        0.3374670147895813
      ],
      "min": [
        0.5905609726905823,
        -1.4260400533676147,
        -0.3374670147895813
      ],
      "type": "VEC3"
    },
    {
      "bufferView": 2,
      "byteOffset": 3840,
      "componentType": 5126,
      "count": 320,
      "max": [
        0.7151583433151245,
        0.7218116521835327,
        1.0
      ],
      "min": [
        -0.725649356842041,
        -0.7218116521835327,
        -1.0
      ],
      "type": "VEC3"
    },
    {
      "bufferView": 3,
      "componentType": 5126,
      "count": 320,
      "max": [
        1.0,
        0.7020247578620911,
        0.8141294121742249,
        1.0
      ],
      "min": [
        -1.0,
        -0.9969677925109863,
        -0.8141267895698547,
        1.0
      ],
      "type": "VEC4"
    },
    {
      "bufferView": 1,
      "componentType": 5126,
      "count": 320,
      "max": [
        0.9359850287437439,
        0.9232929944992065
      ],
      "min": [
        0.0004879999905824661,
        0.68094801902771
      ],
      "type": "VEC2"
    },
    {
      "bufferView": 0,
      "componentType": 5125,
      "count": 1344,
      "type": "SCALAR"
    },
    {
      "bufferView": 2,
      "byteOffset": 7680,
      "componentType": 5126,
      "count": 16,
      "max": [
        0.6859070062637329,
        0.6903889775276184,
        0.36844998598098755
      ],
      "min": [
        -0.6391350030899048,
        0.19133900105953217,
        0.22909000515937805
      ],
      "type": "VEC3"
    },
    {
      "bufferView": 2,
      "byteOffset": 7872,
      "componentType": 5126,
      "count": 16,
      "max": [
        0.7071068286895752,
        0.7071068286895752,
        0.9054145216941833
      ],
      "min": [
        -0.7071068286895752,
        -0.7071068286895752,
        0.0
      ],
      "type": "VEC3"
    },
    {
      "bufferView": 3,
      "byteOffset": 5120,
      "componentType": 5126,
      "count": 16,
      "max": [
        0.9519295692443848,
        0.7071068286895752,
        0.9999632239341736,
        1.0
      ],
      "min": [
        -0.006089995615184307,
        -0.7071068286895752,
        -0.9999629259109497,
        1.0
      ],
      "type": "VEC4"
    },
    {
      "bufferView": 1,
      "byteOffset": 2560,
      "componentType": 5126,
      "count": 16,
      "max": [
        0.9970890283584595,
        0.6514130234718323
      ],
      "min": [
        0.722586989402771,
        0.5056869983673096
      ],
      "type": "VEC2"
    },
    {
      "bufferView": 0,
      "byteOffset": 5376,
      "componentType": 5125,
      "count": 54,
      "type": "SCALAR"
    },
    {
      "bufferView": 2,
      "byteOffset": 8064,
      "componentType": 5126,
      "count": 217,
      "max": [
        -0.9104269742965698,
        0.7939490079879761,
        0.4197849929332733
      ],
      "min": [
        -1.2920260429382324,
        -0.7939490079879761,
        -0.4214969873428345
      ],
      "type": "VEC3"
    },
    {
      "bufferView": 2,
      "byteOffset": 10668,
      "componentType": 5126,
      "count": 217,
      "max": [
        0.6541522145271301,
        0.9998573660850525,
        0.7369593381881714
      ],
      "min": [
        -0.715766191482544,
        -0.9998573660850525,
        -0.7461691498756409
      ],
      "type": "VEC3"
    },
    {
      "bufferView": 3,
      "byteOffset": 5376,
      "componentType": 5126,
      "count": 217,
      "max": [
        0.9979408979415894,
        0.046658679842948914,
        0.9999838471412659,
        1.0
      ],
      "min": [
        -0.9988031387329102,
        -0.041795045137405396,
        -0.9999882578849792,
        1.0
      ],
      "type": "VEC4"
    },
    {
      "bufferView": 1,
      "byteOffset": 2688,
      "componentType": 5126,
      "count": 217,
      "max": [
        0.9588850140571594,
        0.7438790202140808
      ],
      "min": [
        0.04852699860930443,
        0.5950400233268738
      ],
      "type": "VEC2"
    },
    {
      "bufferView": 0,
      "byteOffset": 5592,
      "componentType": 5125,
      "count": 756,
      "type": "SCALAR"
    },
    {
      "bufferView": 2,
      "byteOffset": 13272,
      "componentType": 5126,
      "count": 32,
      "max": [
        -0.25260499119758606,
        -1.2294169664382935,
        -0.14771200716495514
      ],
      "min": [
        -0.47203901410102844,
        -1.6515469551086426,
        -0.22930799424648285
      ],
      "type": "VEC3"
    },
    {
      "bufferView": 2,
      "byteOffset": 13656,
      "componentType": 5126,
      "count": 32,
      "max": [
        0.7436749935150146,
        0.2074429988861084,
        0.7243371605873108
      ],
      "min": [
        -0.7436749935150146,
        -0.809162974357605,
        -0.7914408445358276
      ],
      "type": "VEC3"
    },
    {
      "bufferView": 3,
      "byteOffset": 8848,
      "componentType": 5126,
      "count": 32,
      "max": [
        0.806647777557373,
        0.6087403297424316,
        0.7371944785118103,
        1.0
      ],
      "min": [
        -0.8066533803939819,
        -0.6029655337333679,
        -0.7358729243278503,
        1.0
      ],
      "type": "VEC4"
    },
    {
      "bufferView": 1,
      "byteOffset": 4424,
      "componentType": 5126,
      "count": 32,
      "max": [
        0.19553199410438538,
        0.7579630017280579
      ],
      "min": [
        0.046247001737356186,
        0.5085060000419617
      ],
      "type": "VEC2"
    },
    {
      "bufferView": 0,
      "byteOffset": 8616,
      "componentType": 5125,
      "count": 102,
      "type": "SCALAR"
    },
    {
      "bufferView": 2,
      "byteOffset": 14040,
      "componentType": 5126,
      "count": 208,
      "max": [
        1.0496230125427246,
        1.394212007522583,
        0.3330110013484955
      ],
      "min": [
        -1.2210400104522705,
        -1.394212007522583,
        -0.3335359990596771
      ],
      "type": "VEC3"
    },
    {
      "bufferView": 2,
      "byteOffset": 16536,
      "componentType": 5126,
      "count": 208,
      "max": [
        0.714573085308075,
        1.0,
        1.0
      ],
      "min": [
        -0.9999489784240723,
        -1.0,
        -0.999999463558197
      ],
      "type": "VEC3"
    },
    {
      "bufferView": 3,
      "byteOffset": 9360,
      "componentType": 5126,
      "count": 208,
      "max": [
        1.0,
        0.9680992960929871,
        0.9999234676361084,
        1.0
      ],
      "min": [
        -0.9999968409538269,
        -0.9659713506698608,
        -0.999987781047821,
        1.0
      ],
      "type": "VEC4"
    },
    {
      "bufferView": 1,
      "byteOffset": 4680,
      "componentType": 5126,
      "count": 208,
      "max": [
        0.9995120167732239,
        0.9204850196838379
      ],
      "min": [
        0.0004939999780617654,
        0.0004879999905824661
      ],
      "type": "VEC2"
    },
    {
      "bufferView": 0,
      "byteOffset": 9024,
      "componentType": 5125,
      "count": 720,
      "type": "SCALAR"
    },
    {
      "bufferView": 2,
      "byteOffset": 19032,
      "componentType": 5126,
      "count": 48,
      "max": [
        -0.4944959878921509,
        -1.2294169664382935,
        -0.0469449982047081
      ],
      "min": [
        -0.7139289975166321,
        -1.7457590103149414,
        -0.23465900123119354
      ],
      "type": "VEC3"
    },
    {
      "bufferView": 2,
      "byteOffset": 19608,
      "componentType": 5126,
      "count": 48,
      "max": [
        0.7529141902923584,
        0.7490573525428772,
        0.7243371605873108
      ],
      "min": [
        -0.7529114484786987,
        -0.9836323857307434,
        -0.9588148593902588
      ],
      "type": "VEC3"
    },
    {
      "bufferView": 3,
      "byteOffset": 12688,
      "componentType": 5126,
      "count": 48,
      "max": [
        0.3195342421531677,
        0.9907860159873962,
        0.7234435081481934,
        1.0
      ],
      "min": [
        -1.0,
        -0.9999979734420776,
        -0.9999970197677612,
        1.0
      ],
      "type": "VEC4"
    },
    {
      "bufferView": 1,
      "byteOffset": 6344,
      "componentType": 5126,
      "count": 48,
      "max": [
        0.9773989915847778,
        0.8432139754295349
      ],
      "min": [
        0.48819300532341003,
        0.5082240104675293
      ],
      "type": "VEC2"
    },
    {
      "bufferView": 0,
      "byteOffset": 11904,
      "componentType": 5125,
      "count": 174,
      "type": "SCALAR"
    }
  ],
  "asset": {
    "extras": {
      "author": "barism09 (https://sketchfab.com/barism09)",
      "license": "CC-BY-4.0 (http://creativecommons.org/licenses/by/4.0/)",
      "source": "https://sketchfab.com/3d-models/book-adde1e2669d14286843bc9f1cff9ae45",
      "title": "Book"
    },
    "generator": "Sketchfab-12.66.0",
    "version": "2.0"
  },
  "bufferViews": [
    {
      "buffer": 0,
      "byteLength": 12600,
      "name": "floatBufferViews",
      "target": 34963
    },
    {
      "buffer": 0,
      "byteLength": 6728,
      "byteOffset": 12600,
      "byteStride": 8,
      "name": "floatBufferViews",
      "target": 34962
    },
    {
      "buffer": 0,
      "byteLength": 20184,
      "byteOffset": 19328,
      "byteStride": 12,
      "name": "floatBufferViews",
      "target": 34962
    },
    {
      "buffer": 0,
      "byteLength": 13456,
      "byteOffset": 39512,
      "byteStride": 16,
      "name": "floatBufferViews",
      "target": 34962
    }
  ],
  "buffers": [
    {
      "byteLength": 52968,
      "uri": "scene.bin"
    }
  ],
  "images": [
    {
      "uri": "textures/BookMat_1_baseColor.jpeg"
    },
    {
      "uri": "textures/BookMat_1_metallicRoughness.png"
    },
    {
      "uri": "textures/BookMat_1_normal.png"
    }
  ],
  "materials": [
    {
      "doubleSided": true,
      "name": "BookMat_1",
      "normalTexture": {
        "index": 2
      },
      "occlusionTexture": {
        "index": 1
      },
      "pbrMetallicRoughness": {
        "baseColorTexture": {
          "index": 0
        },
        "metallicRoughnessTexture": {
          "index": 1
        }
      }
    }
  ],
  "meshes": [
    {
      "name": "defaultMaterial",
      "primitives": [
        {
          "attributes": {
            "NORMAL": 1,
            "POSITION": 0,
            "TANGENT": 2,
            "TEXCOORD_0": 3
          },
          "indices": 4,
          "material": 0,
          "mode": 4
        }
      ]
    },
    {
      "name": "defaultMaterial",
      "primitives": [
        {
          "attributes": {
            "NORMAL": 6,
            "POSITION": 5,
            "TANGENT": 7,
            "TEXCOORD_0": 8
          },
          "indices": 9,
          "material": 0,
          "mode": 4
        }
      ]
    },
    {
      "name": "defaultMaterial",
      "primitives": [
        {
          "attributes": {
            "NORMAL": 11,
            "POSITION": 10,
            "TANGENT": 12,
            "TEXCOORD_0": 13
          },
          "indices": 14,
          "material": 0,
          "mode": 4
        }
      ]
    },
    {
      "name": "defaultMaterial",
      "primitives": [
        {
          "attributes": {
            "NORMAL": 16,
            "POSITION": 15,
            "TANGENT": 17,
            "TEXCOORD_0": 18
          },
          "indices": 19,
          "material": 0,
          "mode": 4
        }
      ]
    },
    {
      "name": "defaultMaterial",
      "primitives": [
        {
          "attributes": {
            "NORMAL": 21,
            "POSITION": 20,
            "TANGENT": 22,
            "TEXCOORD_0": 23
          },
          "indices": 24,
          "material": 0,
          "mode": 4
        }
      ]
    },
    {
      "name": "defaultMaterial",
      "primitives": [
        {
          "attributes": {
            "NORMAL": 26,
            "POSITION": 25,
            "TANGENT": 27,
            "TEXCOORD_0": 28
          },
          "indices": 29,
          "material": 0,
          "mode": 4
        }
      ]
    }
  ],
  "nodes": [
    {
      "children": [
        1
      ],
      "matrix": [
        1.0,
        -1.6081226229577292e-16,
        -5.356124287284811e-32,
        0.0,
        8.006836424271825e-33,
        3.828568672208042e-16,
        -1.0,
        0.0,
        1.6081226229577292e-16,
        1.0,
        3.828568672208042e-16,
        0.0,
        0.0,
        2.5993096627009325e-14,
        -2.8360449277897715e-07,
        1.0
      ],
      "name": "Sketchfab_model"
    },
    {
      "children": [
        2,
        4,
        6,
        8,
        10,
        12
      ],
      "matrix": [
        1.0,
        0.0,
        0.0,
        0.0,
        0.0,
        -4.371139006309477e-08,
        0.999999999999999,
        0.0,
        0.0,
        -0.999999999999999,
        -4.371139006309477e-08,
        0.0,
        0.0,
        0.0,
        0.0,
        1.0
      ],
      "name": "Collada visual scene group"
    },
    {
      "children": [
        3
      ],
      "matrix": [
        100.0,
        0.0,
        0.0,
        0.0,
        0.0,
        -1.6e-05,
        -100.0,
        0.0,
        0.0,
        100.0,
        -1.6e-05,
        0.0,
        0.0,
        0.0,
        0.0,
        1.0
      ],
      "name": "Metal3_Low"
    },
    {
      "mesh": 0,
      "name": "defaultMaterial"
    },
    {
      "children": [
        5
      ],
      "matrix": [
        100.0,
        0.0,
        0.0,
        0.0,
        0.0,
        -1.6e-05,
        -100.0,
        0.0,
        0.0,
        100.0,
        -1.6e-05,
        0.0,
        0.0,
        0.0,
        0.0,
        1.0
      ],
      "name": "Metal2_Low"
    },
    {
      "mesh": 1,
      "name": "defaultMaterial"
    },
    {
      "children": [
        7
      ],
      "matrix": [
        100.0,
        0.0,
        0.0,
        0.0,
        0.0,
        -1.6e-05,
        -100.0,
        0.0,
        0.0,
        100.0,
        -1.6e-05,
        0.0,
        0.0,
        0.0,
        0.0,
        1.0
      ],
      "name": "Metal1_Low"
    },
    {
      "mesh": 2,
      "name": "defaultMaterial"
    },
    {
      "children": [
        9
      ],
      "matrix": [
        100.0,
        0.0,
        0.0,
        0.0,
        0.0,
        -1.6e-05,
        -100.0,
        0.0,
        0.0,
        100.0,
        -1.6e-05,
        0.0,
        0.0,
        0.0,
        0.0,
        1.0
      ],
      "name": "Ribbon2_Low"
    },
    {
      "mesh": 3,
      "name": "defaultMaterial"
    },
    {
      "children": [
        11
      ],
      "matrix": [
        100.0,
        0.0,
        0.0,
        0.0,
        0.0,
        -1.6e-05,
        -100.0,
        0.0,
        0.0,
        100.0,
        -1.6e-05,
        0.0,
        0.0,
        0.0,
        0.0,
        1.0
      ],
      "name": "Book_Low"
    },
    {
      "mesh": 4,
      "name": "defaultMaterial"
    },
    {
      "children": [
        13
      ],
      "matrix": [
        100.0,
        0.0,
        0.0,
        0.0,
        0.0,
        -1.6e-05,
        -100.0,
        0.0,
        0.0,
        100.0,
        -1.6e-05,
        0.0,
        0.0,
        0.0,
        0.0,
        1.0
      ],
      "name": "Ribbon_Low"
    },
    {
      "mesh": 5,
      "name": "defaultMaterial"
    }
  ],
  "samplers": [
    {
      "magFilter": 9729,
      "minFilter": 9987,
      "wrapS": 10497,
      "wrapT": 10497
    }
  ],
  "scene": 0,
  "scenes": [
    {
      "name": "Sketchfab_Scene",
      "nodes": [
        0
      ]
    }
  ],
  "textures": [
    {
      "sampler": 0,
      "source": 0
    },
    {
      "sampler": 0,
      "source": 1
    },
    {
      "sampler": 0,
      "source": 2
    }
  ]
}
