{
  "accessors": [
    {
      "bufferView": 2,
      "componentType": 5126,
      "count": 880,
      "max": [
        0.06923024356365204,
        0.06923022866249084,
        0.300126314163208
      ],
      "min": [
        -0.06923025101423264,
        -0.06923027336597443,
        0.0
      ],
      "type": "VEC3"
    },
    {
      "bufferView": 2,
      "byteOffset": 10560,
      "componentType": 5126,
      "count": 880,
      "max": [
        0.9998645186424255,
        0.9998644590377808,
        1.0
      ],
      "min": [
        -0.9998645186424255,
        -0.9998645186424255,
        -1.0
      ],
      "type": "VEC3"
    },
    {
      "bufferView": 3,
      "componentType": 5126,
      "count": 880,
      "max": [
        0.9999955296516418,
        0.9999998211860657,
        0.7235549688339233,
        1.0
      ],
      "min": [
        -0.9999983906745911,
        -0.9999999403953552,
        -0.7436826229095459,
        1.0
      ],
      "type": "VEC4"
    },
    {
      "bufferView": 1,
      "componentType": 5126,
      "count": 880,
      "max": [
        0.9842060208320618,
        0.9957583546638489
      ],
      "min": [
        0.004245934542268515,
        0.004249393939971924
      ],
      "type": "VEC2"
    },
    {
      "bufferView": 0,
      "componentType": 5125,
      "count": 4704,
      "type": "SCALAR"
    }
  ],
  "asset": {
    "extras": {
      "author": "AleixoAlonso (https://sketchfab.com/AleixoAlonso)",
      "license": "CC-BY-4.0 (http://creativecommons.org/licenses/by/4.0/)",
      "source": "https://sketchfab.com/3d-models/floral-vase-351a73a2ef694c6f8aba7d5ccdf7f9b6",
      "title": "Floral Vase"
    },
    "generator": "Sketchfab-12.66.0",
    "version": "2.0"
  },
  "bufferViews": [
    {
      "buffer": 0,
      "byteLength": 18816,
      "name": "floatBufferViews",
      "target": 34963
    },
    {
      "buffer": 0,
      "byteLength": 7040,
      "byteOffset": 18816,
      "byteStride": 8,
      "name": "floatBufferViews",
      "target": 34962
    },
    {
      "buffer": 0,
      "byteLength": 21120,
      "byteOffset": 25856,
      "byteStride": 12,
      "name": "floatBufferViews",
      "target": 34962
    },
    {
      "buffer": 0,
      "byteLength": 14080,
      "byteOffset": 46976,
      "byteStride": 16,
      "name": "floatBufferViews",
      "target": 34962
    }
  ],
  "buffers": [
    {
      "byteLength": 61056,
      "uri": "scene.bin"
    }
  ],
  "images": [
    {
      "uri": "textures/VAS0001_Textures_baseColor.png"
    },
    {
      "uri": "textures/VAS0001_Textures_metallicRoughness.png"
    },
    {
      "uri": "textures/VAS0001_Textures_normal.png"
    }
  ],
  "materials": [
    {
      "doubleSided": true,
      "name": "VAS0001_Textures",
      "normalTexture": {
        "index": 2
      },
      "occlusionTexture": {
        "index": 1
      },
      "pbrMetallicRoughness": {
        "baseColorTexture": {
          "index": 0
        },
        "metallicRoughnessTexture": {
          "index": 1
        }
      }
    }
  ],
  "meshes": [
    {
      "name": "#VAS0001_Vase_#VAS0001_Textures_0",
      "primitives": [
        {
          "attributes": {
            "NORMAL": 1,
            "POSITION": 0,
            "TANGENT": 2,
            "TEXCOORD_0": 3
          },
          "indices": 4,
          "material": 0,
          "mode": 4
        }
      ]
    }
  ],
  "nodes": [
    {
      "children": [
        1
      ],
      "matrix": [
        1.0,
        0.0,
        0.0,
        0.0,
        0.0,
        2.220446049250313e-16,
        -1.0,
        0.0,
        0.0,
        1.0,
        2.220446049250313e-16,
        0.0,
        0.0,
        0.0,
        0.0,
        1.0
      ],
      "name": "Sketchfab_model"
    },
    {
      "children": [
        2
      ],
      "matrix": [
        1.0,
        0.0,
        0.0,
        0.0,
        0.0,
        0.0,
        1.0,
        0.0,
        0.0,
        -1.0,
        0.0,
        0.0,
        0.0,
        0.0,
        0.0,
        1.0
      ],
      "name": "#VAS0001_Floral_Ceramic_White.fbx"
    },
    {
      "children": [
        3
      ],
      "name": "RootNode"
    },
    {
      "children": [
        4
      ],
      "matrix": [
        1.0,
        0.0,
        0.0,
        0.0,
        0.0,
        -1.6292067939183141e-07,
        -0.9999999999999868,
        0.0,
        0.0,
        0.9999999999999868,
        -1.6292067939183141e-07,
        0.0,
        5.6461431086063385e-09,
        0.0,
        -1.909211277961731e-08,
        1.0
      ],
      "name": "#VAS0001_Vase"
    },
    {
      "mesh": 0,
      "name": "#VAS0001_Vase_#VAS0001_Textures_0"
    }
  ],
  "samplers": [
    {
      "magFilter": 9729,
      "minFilter": 9987,
      "wrapS": 10497,
      "wrapT": 10497
    }
  ],
  "scene": 0,
  "scenes": [
    {
      "name": "Sketchfab_Scene",
      "nodes": [
        0
      ]
    }
  ],
  "textures": [
    {
      "sampler": 0,
      "source": 0
    },
    {
      "sampler": 0,
      "source": 1
    },
    {
      "sampler": 0,
      "source": 2
    }
  ]
}
