{
  "accessors": [
    {
      "bufferView": 2,
      "componentType": 5126,
      "count": 8969,
      "max": [
        0.7191422581672668,
        3.011068344116211,
        0.7191423177719116
      ],
      "min": [
        -0.7191423177719116,
        -0.009999223053455353,
        -0.7191423177719116
      ],
      "type": "VEC3"
    },
    {
      "bufferView": 2,
      "byteOffset": 107628,
      "componentType": 5126,
      "count": 8969,
      "max": [
        0.9999991655349731,
        0.9995377063751221,
        0.9999991655349731
      ],
      "min": [
        -0.9999991655349731,
        -0.9995472431182861,
        -0.9999991655349731
      ],
      "type": "VEC3"
    },
    {
      "bufferView": 1,
      "componentType": 5126,
      "count": 8969,
      "max": [
        1.0000001192092896,
        1.0
      ],
      "min": [
        0.0,
        -2.0010628700256348
      ],
      "type": "VEC2"
    },
    {
      "bufferView": 0,
      "componentType": 5125,
      "count": 52608,
      "type": "SCALAR"
    },
    {
      "bufferView": 2,
      "byteOffset": 215256,
      "componentType": 5126,
      "count": 8543,
      "max": [
        0.7106471061706543,
        1.1819498538970947,
        0.7106456756591797
      ],
      "min": [
        -0.7106470465660095,
        0.0,
        -0.7106456756591797
      ],
      "type": "VEC3"
    },
    {
      "bufferView": 2,
      "byteOffset": 317772,
      "componentType": 5126,
      "count": 8543,
      "max": [
        0.9999843835830688,
        1.0,
        0.9999843239784241
      ],
      "min": [
        -0.9999844431877136,
        -1.0,
        -0.9999843835830688
      ],
      "type": "VEC3"
    },
    {
      "bufferView": 1,
      "byteOffset": 71752,
      "componentType": 5126,
      "count": 8543,
      "max": [
        1.0000001192092896,
        1.0
      ],
      "min": [
        0.0,
        -0.18745672702789307
      ],
      "type": "VEC2"
    },
    {
      "bufferView": 0,
      "byteOffset": 210432,
      "componentType": 5125,
      "count": 49704,
      "type": "SCALAR"
    },
    {
      "bufferView": 2,
      "byteOffset": 420288,
      "componentType": 5126,
      "count": 12125,
      "max": [
        0.5450588464736938,
        1.5368760824203491,
        0.5437881946563721
      ],
      "min": [
        -0.5450588464736938,
        0.0,
        -0.5437881946563721
      ],
      "type": "VEC3"
    },
    {
      "bufferView": 2,
      "byteOffset": 565788,
      "componentType": 5126,
      "count": 12125,
      "max": [
        0.9999958276748657,
        0.9994736909866333,
        0.9976645708084106
      ],
      "min": [
        -0.9999958276748657,
        -0.9994736313819885,
        -0.9976645708084106
      ],
      "type": "VEC3"
    },
    {
      "bufferView": 1,
      "byteOffset": 140096,
      "componentType": 5126,
      "count": 12125,
      "max": [
        1.0,
        1.0
      ],
      "min": [
        0.0,
        -0.5148146152496338
      ],
      "type": "VEC2"
    },
    {
      "bufferView": 0,
      "byteOffset": 409248,
      "componentType": 5125,
      "count": 70668,
      "type": "SCALAR"
    },
    {
      "bufferView": 2,
      "byteOffset": 711288,
      "componentType": 5126,
      "count": 310,
      "max": [
        -0.7107153534889221,
        1.775329351425171,
        0.6786585450172424
      ],
      "min": [
        -2.0755088329315186,
        0.003315150737762451,
        -0.6786585450172424
      ],
      "type": "VEC3"
    },
    {
      "bufferView": 2,
      "byteOffset": 715008,
      "componentType": 5126,
      "count": 310,
      "max": [
        0.9999358654022217,
        0.9019012451171875,
        0.9944581985473633
      ],
      "min": [
        -0.9999359250068665,
        -0.9550423622131348,
        -0.9944581985473633
      ],
      "type": "VEC3"
    },
    {
      "bufferView": 1,
      "byteOffset": 237096,
      "componentType": 5126,
      "count": 310,
      "max": [
        1.0,
        0.7836742401123047
      ],
      "min": [
        0.0,
        -1.3207767009735107
      ],
      "type": "VEC2"
    },
    {
      "bufferView": 0,
      "byteOffset": 691920,
      "componentType": 5125,
      "count": 1704,
      "type": "SCALAR"
    },
    {
      "bufferView": 2,
      "byteOffset": 718728,
      "componentType": 5126,
      "count": 9783,
      "max": [
        0.9191153645515442,
        2.9710042476654053,
        0.9191136360168457
      ],
      "min": [
        -0.9191153049468994,
        -0.030722640454769135,
        -0.9191136360168457
      ],
      "type": "VEC3"
    },
    {
      "bufferView": 2,
      "byteOffset": 836124,
      "componentType": 5126,
      "count": 9783,
      "max": [
        0.9999911189079285,
        1.0,
        0.9999910593032837
      ],
      "min": [
        -0.9999911189079285,
        -1.0,
        -0.9999910593032837
      ],
      "type": "VEC3"
    },
    {
      "bufferView": 1,
      "byteOffset": 239576,
      "componentType": 5126,
      "count": 9783,
      "max": [
        1.0000001192092896,
        1.0308420658111572
      ],
      "min": [
        0.0,
        -1.972731351852417
      ],
      "type": "VEC2"
    },
    {
      "bufferView": 0,
      "byteOffset": 698736,
      "componentType": 5125,
      "count": 57912,
      "type": "SCALAR"
    },
    {
      "bufferView": 2,
      "byteOffset": 953520,
      "componentType": 5126,
      "count": 65532,
      "max": [
        0.988272488117218,
        2.7941031455993652,
        0.9882723689079285
      ],
      "min": [
        -0.9882723689079285,
        0.007318098098039627,
        -0.9882724285125732
      ],
      "type": "VEC3"
    },
    {
      "bufferView": 2,
      "byteOffset": 1739904,
      "componentType": 5126,
      "count": 65532,
      "max": [
        0.9999984502792358,
        1.0,
        0.9999984502792358
      ],
      "min": [
        -0.9999995827674866,
        -0.9999701976776123,
        -0.9999984502792358
      ],
      "type": "VEC3"
    },
    {
      "bufferView": 1,
      "byteOffset": 317840,
      "componentType": 5126,
      "count": 65532,
      "max": [
        1.0000001192092896,
        1.0
      ],
      "min": [
        0.0,
        -2.1676743030548096
      ],
      "type": "VEC2"
    },
    {
      "bufferView": 0,
      "byteOffset": 930384,
      "componentType": 5125,
      "count": 380994,
      "type": "SCALAR"
    },
    {
      "bufferView": 2,
      "byteOffset": 2526288,
      "componentType": 5126,
      "count": 56327,
      "max": [
        0.9282532334327698,
        2.7941031455993652,
        0.928253173828125
      ],
      "min": [
        -0.928253173828125,
        0.04567614197731018,
        -0.9282532334327698
      ],
      "type": "VEC3"
    },
    {
      "bufferView": 2,
      "byteOffset": 3202212,
      "componentType": 5126,
      "count": 56327,
      "max": [
        0.9999996423721313,
        1.0,
        0.9999996423721313
      ],
      "min": [
        -0.9999995827674866,
        -0.9999578595161438,
        -0.9999996423721313
      ],
      "type": "VEC3"
    },
    {
      "bufferView": 1,
      "byteOffset": 842096,
      "componentType": 5126,
      "count": 56327,
      "max": [
        1.0000001192092896,
        1.0
      ],
      "min": [
        0.0,
        -2.1676743030548096
      ],
      "type": "VEC2"
    },
    {
      "bufferView": 0,
      "byteOffset": 2454360,
      "componentType": 5125,
      "count": 325566,
      "type": "SCALAR"
    },
    {
      "bufferView": 2,
      "byteOffset": 3878136,
      "componentType": 5126,
      "count": 3564,
      "max": [
        0.4635923504829407,
        2.595843553543091,
        0.4635923504829407
      ],
      "min": [
        -0.4635923504829407,
        -0.009727055206894875,
        -0.4635923504829407
      ],
      "type": "VEC3"
    },
    {
      "bufferView": 2,
      "byteOffset": 3920904,
      "componentType": 5126,
      "count": 3564,
      "max": [
        0.9999898672103882,
        0.9999839067459106,
        0.9999898672103882
      ],
      "min": [
        -0.9999898672103882,
        -0.9999178647994995,
        -0.9999898672103882
      ],
      "type": "VEC3"
    },
    {
      "bufferView": 1,
      "byteOffset": 1292712,
      "componentType": 5126,
      "count": 3564,
      "max": [
        1.0000001192092896,
        1.0
      ],
      "min": [
        0.0,
        -1.5859181880950928
      ],
      "type": "VEC2"
    },
    {
      "bufferView": 0,
      "byteOffset": 3756624,
      "componentType": 5125,
      "count": 20640,
      "type": "SCALAR"
    }
  ],
  "asset": {
    "extras": {
      "author": "kdrkndmr24 (https://sketchfab.com/kdrkndmr24)",
      "license": "CC-BY-4.0 (http://creativecommons.org/licenses/by/4.0/)",
      "source": "https://sketchfab.com/3d-models/vase-models-da30753ccdae4bc5bd09d7890d77f7b7",
      "title": "vase models"
    },
    "generator": "Sketchfab-15.8.0",
    "version": "2.0"
  },
  "bufferViews": [
    {
      "buffer": 0,
      "byteLength": 3839184,
      "name": "floatBufferViews",
      "target": 34963
    },
    {
      "buffer": 0,
      "byteLength": 1321224,
      "byteOffset": 3839184,
      "byteStride": 8,
      "name": "floatBufferViews",
      "target": 34962
    },
    {
      "buffer": 0,
      "byteLength": 3963672,
      "byteOffset": 5160408,
      "byteStride": 12,
      "name": "floatBufferViews",
      "target": 34962
    }
  ],
  "buffers": [
    {
      "byteLength": 9124080,
      "uri": "scene.bin"
    }
  ],
  "extensionsUsed": [
    "KHR_materials_clearcoat",
    "KHR_materials_transmission"
  ],
  "materials": [
    {
      "doubleSided": true,
      "extensions": {
        "KHR_materials_clearcoat": {
          "clearcoatFactor": 0.609091,
          "clearcoatRoughnessFactor": 0.270909
        }
      },
      "name": "Material.002",
      "pbrMetallicRoughness": {
        "baseColorFactor": [
          0.503355,
          0.233934,
          0.0808309,
          1.0
        ],
        "metallicFactor": 0.0
      }
    },
    {
      "alphaMode": "BLEND",
      "doubleSided": true,
      "extensions": {
        "KHR_materials_transmission": {
          "transmissionFactor": 1.0
        }
      },
      "name": "Material.003",
      "pbrMetallicRoughness": {
        "baseColorFactor": [
          0.8,
          0.8,
          0.8,
          0.25
        ],
        "metallicFactor": 0.0,
        "roughnessFactor": 0.0
      }
    },
    {
      "alphaMode": "BLEND",
      "doubleSided": true,
      "extensions": {
        "KHR_materials_transmission": {
          "transmissionFactor": 1.0
        }
      },
      "name": "effaf",
      "pbrMetallicRoughness": {
        "baseColorFactor": [
          0.848235,
          1.0,
          0.563153,
          0.25
        ],
        "metallicFactor": 0.0,
        "roughnessFactor": 0.0
      }
    },
    {
      "doubleSided": true,
      "name": "Material",
      "pbrMetallicRoughness": {
        "baseColorFactor": [
          0.0672193,
          0.0368021,
          0.00615238,
          1.0
        ],
        "metallicFactor": 0.0,
        "roughnessFactor": 0.5
      }
    }
  ],
  "meshes": [
    {
      "name": "Object_0",
      "primitives": [
        {
          "attributes": {
            "NORMAL": 1,
            "POSITION": 0,
            "TEXCOORD_0": 2
          },
          "indices": 3,
          "material": 0,
          "mode": 4
        }
      ]
    },
    {
      "name": "Object_1",
      "primitives": [
        {
          "attributes": {
            "NORMAL": 5,
            "POSITION": 4,
            "TEXCOORD_0": 6
          },
          "indices": 7,
          "material": 0,
          "mode": 4
        }
      ]
    },
    {
      "name": "Object_2",
      "primitives": [
        {
          "attributes": {
            "NORMAL": 9,
            "POSITION": 8,
            "TEXCOORD_0": 10
          },
          "indices": 11,
          "material": 0,
          "mode": 4
        }
      ]
    },
    {
      "name": "Object_3",
      "primitives": [
        {
          "attributes": {
            "NORMAL": 13,
            "POSITION": 12,
            "TEXCOORD_0": 14
          },
          "indices": 15,
          "material": 1,
          "mode": 4
        }
      ]
    },
    {
      "name": "Object_4",
      "primitives": [
        {
          "attributes": {
            "NORMAL": 17,
            "POSITION": 16,
            "TEXCOORD_0": 18
          },
          "indices": 19,
          "material": 2,
          "mode": 4
        }
      ]
    },
    {
      "name": "Object_5",
      "primitives": [
        {
          "attributes": {
            "NORMAL": 21,
            "POSITION": 20,
            "TEXCOORD_0": 22
          },
          "indices": 23,
          "material": 3,
          "mode": 4
        }
      ]
    },
    {
      "name": "Object_6",
      "primitives": [
        {
          "attributes": {
            "NORMAL": 25,
            "POSITION": 24,
            "TEXCOORD_0": 26
          },
          "indices": 27,
          "material": 3,
          "mode": 4
        }
      ]
    },
    {
      "name": "Object_7",
      "primitives": [
        {
          "attributes": {
            "NORMAL": 29,
            "POSITION": 28,
            "TEXCOORD_0": 30
          },
          "indices": 31,
          "material": 2,
          "mode": 4
        }
      ]
    }
  ],
  "nodes": [
    {
      "children": [
        1
      ],
      "matrix": [
        1.0,
        0.0,
        0.0,
        0.0,
        0.0,
        2.220446049250313e-16,
        -1.0,
        0.0,
        0.0,
        1.0,
        2.220446049250313e-16,
        0.0,
        0.0,
        0.0,
        0.0,
        1.0
      ],
      "name": "Sketchfab_model"
    },
    {
      "children": [
        2
      ],
      "name": "root"
    },
    {
      "children": [
        3,
        5,
        7,
        9,
        11,
        13,
        16
      ],
      "matrix": [
        1.0,
        0.0,
        0.0,
        0.0,
        0.0,
        2.220446049250313e-16,
        1.0,
        0.0,
        0.0,
        -1.0,
        2.220446049250313e-16,
        0.0,
        0.0,
        0.0,
        0.0,
        1.0
      ],
      "name": "GLTF_SceneRootNode"
    },
    {
      "children": [
        4
      ],
      "matrix": [
        1.0,
        0.0,
        0.0,
        0.0,
        0.0,
        1.0,
        0.0,
        0.0,
        0.0,
        0.0,
        1.0,
        0.0,
        -9.683280944824219,
        0.0,
        0.0,
        1.0
      ],
      "name": "Plane_0"
    },
    {
      "mesh": 0,
      "name": "Object_4"
    },
    {
      "children": [
        6
      ],
      "matrix": [
        1.0,
        0.0,
        0.0,
        0.0,
        0.0,
        1.0,
        0.0,
        0.0,
        0.0,
        0.0,
        1.0,
        0.0,
        -11.300188064575195,
        0.0,
        0.0,
        1.0
      ],
      "name": "Plane.001_2"
    },
    {
      "mesh": 1,
      "name": "Object_6"
    },
    {
      "children": [
        8
      ],
      "matrix": [
        1.0,
        0.0,
        0.0,
        0.0,
        0.0,
        1.0,
        0.0,
        0.0,
        0.0,
        0.0,
        1.0,
        0.0,
        -12.934499740600586,
        0.0,
        0.0,
        1.0
      ],
      "name": "Plane.002_3"
    },
    {
      "mesh": 2,
      "name": "Object_8"
    },
    {
      "children": [
        10
      ],
      "matrix": [
        1.0,
        0.0,
        0.0,
        0.0,
        0.0,
        1.0,
        0.0,
        0.0,
        0.0,
        0.0,
        1.0,
        0.0,
        -6.771005630493164,
        0.0,
        0.0,
        1.0
      ],
      "name": "Plane.003_5"
    },
    {
      "mesh": 3,
      "name": "Object_10"
    },
    {
      "children": [
        12
      ],
      "matrix": [
        1.0,
        0.0,
        0.0,
        0.0,
        0.0,
        1.0,
        0.0,
        0.0,
        0.0,
        0.0,
        1.0,
        0.0,
        -6.5299201011657715,
        0.0,
        0.0,
        1.0
      ],
      "name": "Plane.004_7"
    },
    {
      "mesh": 4,
      "name": "Object_12"
    },
    {
      "children": [
        14,
        15
      ],
      "matrix": [
        0.8126804232597351,
        0.0,
        0.0,
        0.0,
        0.0,
        0.8126804232597351,
        0.0,
        0.0,
        0.0,
        0.0,
        0.8126804232597351,
        0.0,
        -4.641887664794922,
        0.0,
        0.0,
        1.0
      ],
      "name": "Plane.005_9"
    },
    {
      "mesh": 5,
      "name": "Object_14"
    },
    {
      "mesh": 6,
      "name": "Object_15"
    },
    {
      "children": [
        17
      ],
      "matrix": [
        1.0,
        0.0,
        0.0,
        0.0,
        0.0,
        1.0,
        0.0,
        0.0,
        0.0,
        0.0,
        1.0,
        0.0,
        -3.1835074424743652,
        0.0,
        0.0,
        1.0
      ],
      "name": "Plane.006_11"
    },
    {
      "mesh": 7,
      "name": "Object_17"
    }
  ],
  "scene": 0,
  "scenes": [
    {
      "name": "Sketchfab_Scene",
      "nodes": [
        0
      ]
    }
  ]
}
